<svg xmlns="http://www.w3.org/2000/svg" width="370" height="522.019" viewBox="0 0 370 522.019">
  <g id="pin" transform="translate(-71 5)">
    <path id="Path_7" data-name="Path 7" d="M256,0C156.7,0,76,80.7,76,180a177.5,177.5,0,0,0,27,94.5L243.8,504.915a14.214,14.214,0,0,0,10.2,6.9,14.933,14.933,0,0,0,15.3-7.2L410.5,272.1A177.525,177.525,0,0,0,436,180C436,80.7,355.3,0,256,0Zm0,270a89.879,89.879,0,0,1-90-90c0-49.5,40.5-90,90-90s90,40.5,90,90A89.685,89.685,0,0,1,256,270Z" fill="#f52655" stroke="#3d3d3d" stroke-width="10"/>
    <path id="Path_8" data-name="Path 8" d="M256,2.5V87c49.5,0,92.5,43.5,92.5,93,0,48.9-41.5,92-92.5,92V509.5c5.119.119,8.583-1.96,11.5-7L406,272c16.8-27.6,28-59.6,28-92C434,80.7,355.3,2.5,256,2.5Z" fill="#c9183c" opacity="0.5"/>
  </g>
</svg>
