<svg xmlns="http://www.w3.org/2000/svg" width="16" height="16" viewBox="0 0 16 16">
  <g id="settings" transform="translate(0 -0.001)">
    <path id="Path_5" data-name="Path 5" d="M15.181,6.321l-1.123-.191a6.341,6.341,0,0,0-.451-1.09l.662-.926a.985.985,0,0,0-.107-1.273l-1-1a.981.981,0,0,0-.7-.291.971.971,0,0,0-.572.184l-.929.662a6.275,6.275,0,0,0-1.13-.465L9.649.827A.987.987,0,0,0,8.673,0H7.266A.987.987,0,0,0,6.29.827L6.1,1.963a6.185,6.185,0,0,0-1.086.458l-.919-.662a.987.987,0,0,0-1.273.107l-1,1a.989.989,0,0,0-.107,1.273l.668.939a6.194,6.194,0,0,0-.445,1.093l-1.11.187A.987.987,0,0,0,0,7.331V8.738a.987.987,0,0,0,.826.976l1.136.194a6.185,6.185,0,0,0,.458,1.086l-.658.916a.985.985,0,0,0,.107,1.273l1,1a.981.981,0,0,0,.7.291.971.971,0,0,0,.572-.184l.939-.668a6.323,6.323,0,0,0,1.056.435l.187,1.123A.987.987,0,0,0,7.293,16H8.7a.987.987,0,0,0,.976-.826l.191-1.123a6.341,6.341,0,0,0,1.09-.451l.926.662a.981.981,0,0,0,.575.184h0a.981.981,0,0,0,.7-.291l1-1a.989.989,0,0,0,.107-1.273l-.662-.929a6.3,6.3,0,0,0,.451-1.09l1.123-.187A.987.987,0,0,0,16,8.7V7.3A.975.975,0,0,0,15.181,6.321ZM15.1,8.7a.087.087,0,0,1-.074.087l-1.4.234a.449.449,0,0,0-.361.331,5.351,5.351,0,0,1-.582,1.4.452.452,0,0,0,.02.491l.826,1.163a.091.091,0,0,1-.01.114l-1,1a.085.085,0,0,1-.064.027.082.082,0,0,1-.05-.017l-1.16-.826a.452.452,0,0,0-.491-.02,5.351,5.351,0,0,1-1.4.582.444.444,0,0,0-.331.361l-.237,1.4a.087.087,0,0,1-.087.074H7.3a.087.087,0,0,1-.087-.074l-.234-1.4a.449.449,0,0,0-.331-.361,5.556,5.556,0,0,1-1.37-.562.463.463,0,0,0-.227-.06.44.44,0,0,0-.261.084l-1.17.832a.1.1,0,0,1-.05.017.09.09,0,0,1-.064-.027l-1-1a.091.091,0,0,1-.01-.114l.822-1.153a.458.458,0,0,0,.02-.495,5.3,5.3,0,0,1-.588-1.4.458.458,0,0,0-.361-.331L.976,8.825A.087.087,0,0,1,.9,8.738V7.331a.087.087,0,0,1,.074-.087L2.37,7.01a.452.452,0,0,0,.364-.334,5.345,5.345,0,0,1,.572-1.4.446.446,0,0,0-.023-.488L2.45,3.614A.091.091,0,0,1,2.46,3.5l1-1a.085.085,0,0,1,.064-.027.082.082,0,0,1,.05.017l1.153.822a.458.458,0,0,0,.495.02,5.3,5.3,0,0,1,1.4-.588.458.458,0,0,0,.331-.361L7.186.974A.087.087,0,0,1,7.273.9H8.68a.087.087,0,0,1,.087.074L9,2.367a.452.452,0,0,0,.334.364,5.425,5.425,0,0,1,1.434.588.452.452,0,0,0,.491-.02l1.153-.829a.1.1,0,0,1,.05-.017.09.09,0,0,1,.064.027l1,1a.091.091,0,0,1,.01.114l-.826,1.16a.452.452,0,0,0-.02.491,5.351,5.351,0,0,1,.582,1.4.444.444,0,0,0,.361.331l1.4.237a.087.087,0,0,1,.074.087V8.7Z" transform="translate(0 0)" fill="#b7b7b7"/>
    <path id="Path_6" data-name="Path 6" d="M139.555,136a3.455,3.455,0,1,0,3.455,3.455A3.457,3.457,0,0,0,139.555,136Zm0,6.007a2.552,2.552,0,1,1,2.552-2.552A2.553,2.553,0,0,1,139.555,142.008Z" transform="translate(-131.553 -131.457)" fill="#b7b7b7"/>
  </g>
</svg>
